# xmcd
#
# Track frame offsets:
#	150
#	21042
#	38932
#	62935
#	81319
#	100995
#	118357
#	137002
#	154144
#	175671
#	197833
#	220663
#	241361
#	259992
#
# Disc length: 3800 seconds
#
# Revision: 0
# Processed by: cddbd v1.5.1PL0 Copyright (c) Steve Scherf et al.
# Submitted via: dBpowerAMP V4.0
#
DISCID=cb0ed60e
DTITLE=Faith Hill - Cry
DYEAR=2002
DGENRE=Country
TTITLE0=Free
TTITLE1=Cry
TTITLE2=One
TTITLE3=When The Lights Go Down
TTITLE4=Beautiful
TTITLE5=Unsavable
TTITLE6=Baby You Belong
TTITLE7=If You're Gonna Fly Away
TTITLE8=Stronger
TTITLE9=If This Is The End
TTITLE10=This Is Me
TTITLE11=Back To You
TTITLE12=I Think I Will
TTITLE13=You're Still Here
EXTD=
EXTT0=
EXTT1=
EXTT2=
EXTT3=
EXTT4=
EXTT5=
EXTT6=
EXTT7=
EXTT8=
EXTT9=
EXTT10=
EXTT11=
EXTT12=
EXTT13=
PLAYORDER=
